<?xml version="1.0" encoding="utf-8"?>
<!-- Generator: Adobe Illustrator 25.2.3, SVG Export Plug-In . SVG Version: 6.00 Build 0)  -->
<svg version="1.1" id="レイヤー_1" xmlns="http://www.w3.org/2000/svg" xmlns:xlink="http://www.w3.org/1999/xlink" x="0px"
	 y="0px" viewBox="0 0 363 15.6" style="enable-background:new 0 0 363 15.6;" xml:space="preserve">
<style type="text/css">
	.st0{fill:#007BC7;}
</style>
<g>
	<path class="st0" d="M63.3,5.8h2.5c0,0.8-0.2,1.6-0.3,1.9l-1.6,0l0.5,1.2h1.3c1.1,0,1.3-2.3,1.3-3.7V4.6h-3.7c0-0.1,0-0.2,0-0.3
		V3.5H68c0.4,1.3,0.9,2.4,1.6,3.4c-0.7,0.6-1.6,1.2-2.4,1.4l0.9,0.9c0.7-0.2,1.5-0.8,2.3-1.4c0.9,0.8,2,1.5,3.4,1.9l0.6-1.1
		c-1.3-0.4-2.3-1-3.2-1.7C72.1,6,72.8,5,73.1,4.3l-1-0.8c-0.2,0.7-0.8,1.7-1.6,2.5c-0.5-0.7-1-1.5-1.3-2.5H72h2.1V2.3h-1.5l0.5-0.5
		l-1.4-1.4l-0.8,0.8l1.1,1.1H69c-0.1-0.5-0.2-1.1-0.2-1.7l-1.2,0.1c0,0.6,0.1,1.1,0.2,1.6h-5.6v2C62.2,6,62,7.6,60.7,9l1.2,0.4
		C62.8,8.5,63.2,7.2,63.3,5.8z"/>
	<path class="st0" d="M72.8,9.6h-9.9v3.7h-1.9v1.2h13.8v-1.2h-2V9.6z M71.6,13.3h-1.8v-2.5h1.8V13.3z M68.7,13.3h-1.7v-2.5h1.7V13.3
		z M64,10.8h1.8v2.5H64V10.8z"/>
	<polygon class="st0" points="88.4,11.3 86.7,11.3 86.7,7.4 90.2,7.4 90.2,6.2 88.3,6.2 89.2,4.2 88.1,3.7 87.1,5.8 87.9,6.2 
		84.3,6.2 85.1,5.8 84.1,3.7 83,4.2 84,6.2 82.1,6.2 82.1,7.4 85.5,7.4 85.5,11.3 83.9,11.3 83.9,8.8 82.7,8.8 82.7,12.4 89.6,12.4 
		89.6,8.8 88.4,8.8 	"/>
	<rect x="100.8" y="1" class="st0" width="1.2" height="13.7"/>
	<rect x="102.5" y="3.1" transform="matrix(0.9669 -0.2553 0.2553 0.9669 2.3198 26.4716)" class="st0" width="1.2" height="2.5"/>
	<polygon class="st0" points="108.5,5.1 111.4,5.1 111.4,3.9 108.5,3.9 108.5,3.1 112,3.1 112,2 108.5,2 108.5,1 107.3,1 107.3,2 
		103.7,2 103.7,3.1 107.3,3.1 107.3,3.9 104.4,3.9 104.4,5.1 107.3,5.1 107.3,5.8 103.4,5.8 103.4,7 112.4,7 112.4,5.8 108.5,5.8 	
		"/>
	<path class="st0" d="M104.5,14.6h1.2v-2.2h4.5v0.8c0,0.2,0,0.2,0,0.3c0,0-0.1,0-0.2,0h-1.5l0.4,1.2h1.1c1.2,0,1.3-0.9,1.3-1.4V7.6
		h-6.8V14.6z M105.7,11.4v-0.8h4.5v0.8H105.7z M110.2,8.8v0.8h-4.5V8.8H110.2z"/>
	<path class="st0" d="M98.3,7.4l1.3,0.4c0.4-0.8,0.8-2,0.9-3.5l-1.1-0.4C99.2,5.3,98.7,6.8,98.3,7.4z"/>
	<path class="st0" d="M121.2,3.4h2.2V2.2h-2.2V1H120v1.2h-2.2v1.2h2.2v1.3h-2.8v1.2h1.9l-1,0.3l0.6,2h-1.5v1.2h2.8v1.4h-2.2v1.2h2.2
		v2.8h1.2v-2.8h2.2v-1.2h-2.2V9.3h2.8V8.1h-1.5l0.6-2l-1-0.3h1.9V4.6h-2.8V3.4z M121.3,8.1H120l-0.7-2.3h2.7L121.3,8.1z"/>
	<path class="st0" d="M128.8,11.6c0.8-1.5,1.5-3.3,1.7-4.6l0.1-0.7h-4.9v-4h3.5c0,1.3-0.1,1.9-0.1,2.2h-1.3l0.4,1.2h1.1
		c0.9,0,1-1,1-3.9V1.2h-5.9v13.5h1.2v-0.4l1,0.3c0.4-0.4,0.9-1.1,1.5-1.9c0.6,0.8,1.4,1.5,2.2,2l1-0.9
		C130.4,13.3,129.5,12.5,128.8,11.6z M125.7,14V7.5h1.2h2.3c-0.2,0.9-0.6,2-1.1,3c-0.7-1.2-1.1-2.3-1.2-3l-1,0.4
		c0.1,1,0.7,2.4,1.6,3.7C126.9,12.5,126.3,13.3,125.7,14z"/>
	<path class="st0" d="M142.4,12.7h-0.1c-0.4,0-2.6-0.1-2.6-1.7V8.1c2.5-0.4,5.8-1.5,7.8-2.6l-0.4-1.2c-2.1,1.2-5.1,2.2-7.4,2.5V1.9
		h-1.4V11c0,2.1,2,3.1,3.9,3.1l0.1,0c0,0,0.1,0,0.2,0c0.9,0,3,0,5.3-0.3l-0.2-1.3C145.3,12.7,143.1,12.7,142.4,12.7z"/>
	<rect x="146.4" y="1.7" transform="matrix(0.8324 -0.5541 0.5541 0.8324 23.1049 81.9104)" class="st0" width="1.2" height="2.1"/>
	<rect x="148.2" y="0.8" transform="matrix(0.8324 -0.5541 0.5541 0.8324 23.8874 82.7668)" class="st0" width="1.2" height="2.1"/>
	<rect x="163.6" y="1.7" transform="matrix(0.8324 -0.5541 0.5541 0.8324 25.9949 91.4675)" class="st0" width="1.2" height="2.1"/>
	<rect x="165.5" y="0.8" transform="matrix(0.8325 -0.554 0.554 0.8325 26.7628 92.3014)" class="st0" width="1.2" height="2.1"/>
	
		<rect x="234.4" y="1.6" transform="matrix(0.8326 -0.5539 0.5539 0.8326 37.8731 130.6164)" class="st0" width="1.2" height="2.1"/>
	
		<rect x="236.2" y="0.8" transform="matrix(0.8325 -0.5541 0.5541 0.8325 38.6763 131.5047)" class="st0" width="1.2" height="2.1"/>
	
		<rect x="252.3" y="1.6" transform="matrix(0.8325 -0.5541 0.5541 0.8325 40.8901 140.5579)" class="st0" width="1.2" height="2.1"/>
	<rect x="254.1" y="0.8" transform="matrix(0.8326 -0.5539 0.5539 0.8326 41.65 141.3798)" class="st0" width="1.2" height="2.1"/>
	<path class="st0" d="M160.5,4c-0.6-0.5-2.1-1.4-3.5-1.9l-0.7,1.2c1.3,0.5,2.9,1.3,3.3,1.7L160.5,4z"/>
	<path class="st0" d="M159,7.3c-0.9-0.7-2.1-1.3-3.7-1.9l-0.7,1.2c1.4,0.5,2.8,1.2,3.6,1.8L159,7.3z"/>
	<path class="st0" d="M155,12.9l0.8,1.2c3.1-0.8,8.7-4.3,10.5-7.7l-0.8-1.1C163.6,8.8,158.3,12,155,12.9z"/>
	<path class="st0" d="M182.8,4.4l-0.5-1.1h-4.1V1.2h-1.4v2.2h-4.6v1.4h8.5c-2.1,2.2-6,5-9.5,6.2l0.9,1.1c1.4-0.5,3.1-1.3,4.7-2.4
		v4.7h1.4V9c1.1,0.6,3.3,2,4.4,2.9l0.9-1c-1.1-0.9-3.2-2.2-4.3-2.8C180.7,6.8,182,5.5,182.8,4.4z"/>
	<path class="st0" d="M196,8.5c1.3-1.7,2.3-3.4,2.7-4.7L198,2.9h-8.3v1.4h7.4c-1.2,2.8-4.7,6.9-8.6,8.9l1,1c2.1-1.1,4-2.8,5.7-4.7
		c1,0.9,3.2,3.1,4.3,4.5l1.3-0.6C199.5,11.6,197,9.4,196,8.5z"/>
	<path class="st0" d="M216.8,8l-1.2,0c-0.3,1-0.7,1.8-1.1,2.4c-0.8-0.7-1.6-1.5-2.3-2.2c1.2-0.6,2-1.6,2.1-2.8
		c0.1-1-0.2-1.8-0.9-2.4c-0.9-0.7-2.2-0.7-3.2-0.1c-0.9,0.6-1.3,1.6-1,2.8c0.1,0.6,0.5,1.3,1,2c-1,0.6-1.8,1.4-2.1,2.3
		c-0.3,0.9-0.2,1.7,0.4,2.5c0.5,0.8,1.7,1.3,2.9,1.3c0.2,0,0.4,0,0.6,0c0.7-0.1,1.8-0.5,2.9-1.6c0.8,0.6,1.5,1.1,2,1.5l1.1-0.8
		c-0.6-0.4-1.6-1.1-2.3-1.7C216,10.5,216.6,9.4,216.8,8z M210.9,4c0.2-0.2,0.6-0.2,0.9-0.2c0.3,0,0.6,0.1,0.9,0.3
		c0.3,0.2,0.5,0.7,0.4,1.2c-0.1,0.6-0.6,1.5-1.7,1.9c-0.5-0.6-0.8-1.2-0.9-1.7C210.3,4.8,210.4,4.3,210.9,4z M211.7,12.6
		c-1,0.1-1.9-0.3-2.2-0.7c-0.3-0.4-0.4-0.9-0.2-1.4c0.2-0.7,0.8-1.3,1.7-1.7c0.8,0.9,1.8,1.9,2.8,2.7
		C212.9,12.2,212.2,12.5,211.7,12.6z"/>
	<rect x="225.3" y="2.5" class="st0" width="8.7" height="1.4"/>
	<path class="st0" d="M223.6,7.4h5.8c-0.1,3-1.2,4.8-4.1,6.1l1.1,1c2.8-1.3,4.2-3.6,4.4-7.1h5.2V6.1h-12.4V7.4z"/>
	<path class="st0" d="M251.4,1.4H250v3h-4.5v-3h-1.4v3h-3v1.4h3v3.7h1.4V5.7h4.5v1.9c0,0.4-0.1,3.7-4.4,5.8l1,1
		c4.6-2.3,4.7-6.3,4.7-6.8V5.7h2.8V4.4h-2.8V1.4z"/>
	<path class="st0" d="M259.1,8.4l0.8,1.2c1.5-0.5,3.4-1.5,5.2-2.7v7.5h1.4V5.9c1.7-1.2,3.1-2.6,4.1-3.9l-1.1-0.8
		C267.5,4,262.7,7.2,259.1,8.4z"/>
	<path class="st0" d="M282,4.7c-1.2-1.1-3.6-2.2-3.8-2.3l-0.6,1.2c0,0,2.6,1.2,3.6,2.2L282,4.7z"/>
	<path class="st0" d="M277.6,13l0.6,1.2c4.8-1,9.3-5,10.6-8.3l-1.4-0.3C286.3,8.4,282.2,12,277.6,13z"/>
	<path class="st0" d="M301.4,0.9h-1.2V2h-6.3v1.2h6.3V4h-4.5v5.1h7.5v0.8h-9.3v1.2h3.7l-0.9,0.8c0.7,0.4,1.7,1.1,2.4,2.2l0.9-0.9
		c-0.9-1-1.6-1.7-2.4-2.1h5.5v2.2c0,0.1,0,0.2-0.1,0.3c-0.2,0.2-1.1,0.2-1.8,0.1c-0.2,0-0.5-0.1-0.7-0.1l0.5,1.2
		c0.2,0,0.8,0.1,1.2,0.1c0.7,0,1.3-0.1,1.7-0.5c0.3-0.3,0.4-0.7,0.4-1.1v-2.2h3.3V9.9h-3.3V9.1h1.5V4h-4.6V3.2h6.3V2h-6.3V0.9z
		 M300.2,5.2V6h-3.3V5.2H300.2z M296.9,7.2h3.3v0.8h-3.3V7.2z M301.4,7.9V7.2h3.4v0.8H301.4z M304.8,5.2V6h-3.4V5.2H304.8z"/>
	<path class="st0" d="M312.5,14.8h1.2V7h4.4V1.4h-5.6V14.8z M313.7,5.9v-1h3.2v1H313.7z M316.9,2.6v1h-3.2v-1H316.9z"/>
	<path class="st0" d="M319.4,7h4.4v5.5c0,0.6-0.2,0.7-0.2,0.7c-0.4,0.3-1.7,0.2-2.6,0.1l0.4,1.3c0.5,0.1,0.7,0.1,1.1,0.1
		c0.8,0,1.4-0.1,1.8-0.5c0.4-0.4,0.6-0.9,0.6-1.6V1.4h-5.6V7z M320.6,5.9v-1h3.2v1H320.6z M323.8,2.6v1h-3.2v-1H323.8z"/>
	<path class="st0" d="M331.9,5.2h10.4v2.2h1.2V4h-3c1-1.1,2-2.3,2-2.4l-0.9-0.7c0,0-1.5,1.9-2.7,3.1h-5.5l1-0.4
		c-0.4-0.9-1.2-1.9-1.6-2.5l-1.1,0.6c0.3,0.4,1.3,1.5,1.6,2.3h-2.5v3.4h1.2V5.2z"/>
	<path class="st0" d="M337.7,9.7l3.2-2.4l-0.3-1h-7.4v1.2h5.6l-1.9,1.3h-0.6c0,0,0,0.5,0,1.2h-6.2v1.2h6.2c0,0.9,0,1.9,0,2.1
		c0,0.4-0.2,0.4-0.4,0.5c-0.4,0-0.9,0-1.3-0.1l-0.5-0.1l0.4,1.3l0.3,0c0.5,0,0.6,0.1,1,0.1c0.6,0,1.1-0.1,1.4-0.4
		c0.2-0.2,0.4-0.5,0.4-0.9v-2.5h6.2V9.9h-6.2V9.7z"/>
	<path class="st0" d="M337.8,3.5c-0.3-0.8-1-2-1.4-2.7l-1.2,0.5c0.4,0.7,1.2,2,1.5,2.7L337.8,3.5z"/>
	<path class="st0" d="M353.5,8.7L351.7,6V5.3h1.6V4.1h-1.6V0.9h-1.2v3.2h-2.2v1.2h2.2v0.2c-0.6,2-1.5,3.6-2.5,5.3l-0.2,0.4l1.2,0.4
		l0.1-0.1c0.5-0.9,1.1-1.8,1.5-2.7v6.1h1.2V8.2l1,1.4L353.5,8.7z"/>
	<polygon class="st0" points="362,3.1 358.2,3.1 358.2,0.9 357,0.9 357,3.1 353.5,3.1 353.5,4.2 362,4.2 	"/>
	<path class="st0" d="M356.8,5.1l-1-0.6c-0.5,0.8-1.7,2.3-2.4,2.9l0.9,0.8C355.1,7.5,356.2,6,356.8,5.1z"/>
	<path class="st0" d="M358.5,5.2c0.6,0.6,2,1.9,2.5,2.8l1-0.6c-0.8-1.3-2.4-2.8-2.6-2.9L358.5,5.2z"/>
	<path class="st0" d="M358.4,11.2c0.9-1.2,1.6-2.6,1.9-3.8l-1.1-0.3c-0.2,1-0.7,2.1-1.4,3.1c-0.8-1.2-1.3-2.4-1.5-3.1l-1.1,0.3
		c0.3,0.8,0.8,2.3,1.8,3.7c-1,1.1-2.3,2-3.9,2.4l0.6,1.1c1.6-0.5,3-1.4,4.1-2.6c0.9,1,2.1,2,3.7,2.7l0.7-1
		C360.5,13.2,359.3,12.2,358.4,11.2z"/>
	<path class="st0" d="M92.5,10.5v-9H79.7v13h1.2V2.7h10.4v7.8v0v2.6h0c0,0,0,0,0,0c0,0.1-0.1,0.2-0.2,0.2s-1.2,0-1.2,0l0.5,1.2
		l1.1,0c0.1,0,0.5,0,0.7-0.3c0.3-0.3,0.3-0.7,0.3-1.1L92.5,10.5z"/>
	<polygon class="st0" points="10.3,2.3 7.1,10.1 4,2.3 4,2.3 0,2.3 0,3.7 1.3,3.7 1.3,12.7 0,12.7 0,14.1 4.2,14.1 4.2,12.7 
		2.8,12.7 2.8,3.7 2.9,3.7 7.1,14.1 11.3,3.7 11.4,3.7 11.4,12.7 10.1,12.7 10.1,14.1 14.3,14.1 14.3,12.7 12.9,12.7 12.9,3.7 
		14.3,3.7 14.3,2.3 10.3,2.3 	"/>
	<path class="st0" d="M30.8,3.6c-1-0.9-2.4-1.4-3.8-1.4c-3.3,0-6,2.7-6,6c0,3.3,2.7,6,6,6c2.2,0,4.1-1.2,5.2-3l-1.4-0.8
		c-0.8,1.3-2.2,2.2-3.8,2.2c-2.4,0-4.4-2-4.4-4.4s2-4.4,4.4-4.4c1.6,0,3.1,0.9,3.8,2.2h1.4V2.3h-1.4V3.6z"/>
	<polygon class="st0" points="48,12.7 43.6,12.7 43.6,3.7 44.9,3.7 44.9,2.3 40.7,2.3 40.7,3.7 42.1,3.7 42.1,12.7 40.7,12.7 
		40.7,14.1 49.6,14.1 49.6,10.3 48,10.3 	"/>
</g>
</svg>
